<svg height="894" width="720" xmlns="http://www.w3.org/2000/svg">
<rect height="894" fill="#555" width="720"></rect>
<text fill="#7f7" font-family="Courier New" font-size="12" xml:space="preserve">
<tspan x="10" y="26">17 megabytes installed</tspan>
<tspan x="10" y="42"></tspan>
<tspan x="10" y="58">node_modules</tspan>
<tspan x="10" y="74">├── ansi-regex@2.1.1 </tspan>
<tspan x="10" y="90">├── ansi-styles@2.2.1 </tspan>
<tspan x="10" y="106">├─┬ babel-code-frame@6.22.0 </tspan>
<tspan x="10" y="122">│ ├─┬ chalk@1.1.3 </tspan>
<tspan x="10" y="138">│ │ ├── escape-string-regexp@1.0.5 </tspan>
<tspan x="10" y="154">│ │ ├── has-ansi@2.0.0 </tspan>
<tspan x="10" y="170">│ │ ├── strip-ansi@3.0.1 </tspan>
<tspan x="10" y="186">│ │ └── supports-color@2.0.0 </tspan>
<tspan x="10" y="202">│ ├── esutils@2.0.2 </tspan>
<tspan x="10" y="218">│ └── js-tokens@3.0.1 </tspan>
<tspan x="10" y="234">└─┬ babel-core@6.24.1 </tspan>
<tspan x="10" y="250">  ├─┬ babel-generator@6.24.1 </tspan>
<tspan x="10" y="266">  │ ├─┬ detect-indent@4.0.0 </tspan>
<tspan x="10" y="282">  │ │ └─┬ repeating@2.0.1 </tspan>
<tspan x="10" y="298">  │ │   └─┬ is-finite@1.0.2 </tspan>
<tspan x="10" y="314">  │ │     └── number-is-nan@1.0.1 </tspan>
<tspan x="10" y="330">  │ ├── jsesc@1.3.0 </tspan>
<tspan x="10" y="346">  │ └── trim-right@1.0.1 </tspan>
<tspan x="10" y="362">  ├── babel-helpers@6.24.1 </tspan>
<tspan x="10" y="378">  ├── babel-messages@6.23.0 </tspan>
<tspan x="10" y="394">  ├─┬ babel-register@6.24.1 </tspan>
<tspan x="10" y="410">  │ ├── core-js@2.4.1 </tspan>
<tspan x="10" y="426">  │ ├─┬ home-or-tmp@2.0.0 </tspan>
<tspan x="10" y="442">  │ │ ├── os-homedir@1.0.2 </tspan>
<tspan x="10" y="458">  │ │ └── os-tmpdir@1.0.2 </tspan>
<tspan x="10" y="474">  │ ├─┬ mkdirp@0.5.1 </tspan>
<tspan x="10" y="490">  │ │ └── minimist@0.0.8 </tspan>
<tspan x="10" y="506">  │ └── source-map-support@0.4.14 </tspan>
<tspan x="10" y="522">  ├─┬ babel-runtime@6.23.0 </tspan>
<tspan x="10" y="538">  │ └── regenerator-runtime@0.10.3 </tspan>
<tspan x="10" y="554">  ├── babel-template@6.24.1 </tspan>
<tspan x="10" y="570">  ├─┬ babel-traverse@6.24.1 </tspan>
<tspan x="10" y="586">  │ ├── globals@9.17.0 </tspan>
<tspan x="10" y="602">  │ └─┬ invariant@2.2.2 </tspan>
<tspan x="10" y="618">  │   └── loose-envify@1.3.1 </tspan>
<tspan x="10" y="634">  ├─┬ babel-types@6.24.1 </tspan>
<tspan x="10" y="650">  │ └── to-fast-properties@1.0.2 </tspan>
<tspan x="10" y="666">  ├── babylon@6.17.0 </tspan>
<tspan x="10" y="682">  ├── convert-source-map@1.5.0 </tspan>
<tspan x="10" y="698">  ├─┬ debug@2.6.4 </tspan>
<tspan x="10" y="714">  │ └── ms@0.7.3 </tspan>
<tspan x="10" y="730">  ├── json5@0.5.1 </tspan>
<tspan x="10" y="746">  ├── lodash@4.17.4 </tspan>
<tspan x="10" y="762">  ├─┬ minimatch@3.0.3 </tspan>
<tspan x="10" y="778">  │ └─┬ brace-expansion@1.1.7 </tspan>
<tspan x="10" y="794">  │   ├── balanced-match@0.4.2 </tspan>
<tspan x="10" y="810">  │   └── concat-map@0.0.1 </tspan>
<tspan x="10" y="826">  ├── path-is-absolute@1.0.1 </tspan>
<tspan x="10" y="842">  ├── private@0.1.7 </tspan>
<tspan x="10" y="858">  ├── slash@1.0.0 </tspan>
<tspan x="10" y="874">  └── source-map@0.5.6</tspan>
</text>
</svg>
